<?xml version="1.0" encoding="UTF-8"?><svg id="Livello_1" xmlns="http://www.w3.org/2000/svg" viewBox="0 0 132.15 153.63"><defs><style>.cls-1{fill:#fff;}</style></defs><g><path class="cls-1" d="M131.14,140.96c-.27-1.13-.71-2.02-1.36-2.74-.44-.47-.94-.81-1.48-.99-.59-.2-1.32-.3-2.15-.3h-2.93v16.7h2.01c2.08,0,3.56-.38,4.41-1.12,.68-.6,1.17-1.47,1.47-2.59,.29-1.17,.44-2.66,.44-4.42,0-1.99-.13-3.47-.4-4.54Zm-5.24-1.69h.02c1.07,0,1.79,.41,2.19,1.27,.42,.89,.64,2.59,.64,5.04,0,2.26-.22,3.8-.66,4.56-.38,.68-1.09,1.03-2.19,1.08v-11.95Z"/><path class="cls-1" d="M114.42,143.23c0,.82,.04,1.72,.12,2.81-.25-.85-.51-1.67-.79-2.48l-2.23-6.63h-2.46v16.7h2.65l-.12-7.31v-.75c-.01-.08-.02-.16-.02-.23l-.08-1.26c.21,.75,.42,1.43,.64,2.08l2.5,7.46h2.47v-16.7h-2.69v6.3Z"/><path class="cls-1" d="M98.22,136.93l-3.64,16.7h2.62l.62-3.16h2.8l.6,3.16h2.68l-3.58-16.7h-2.09Zm1.98,11.34h-1.99l.34-1.76c.21-1.12,.39-2.18,.55-3.18,.04-.3,.09-.58,.12-.85,.16,1.25,.34,2.43,.54,3.53l.42,2.26Z"/><polygon class="cls-1" points="86.4 136.93 83.72 136.93 83.72 153.63 89.96 153.63 89.96 151.27 86.4 151.27 86.4 136.93"/><path class="cls-1" d="M68.15,144.32c.41-.73,.61-1.71,.61-2.91,0-1.6-.38-2.76-1.18-3.55-.64-.62-1.59-.93-2.82-.93h-3.12v16.7h2.68v-6.8l2.49,6.64,.06,.16h2.75l-3.01-7.96c.64-.22,1.16-.67,1.55-1.35Zm-2.01-2.53c0,.86-.16,1.47-.46,1.82-.27,.29-.72,.46-1.36,.49v-4.87h.12c.29,0,.55,.05,.78,.14,.21,.09,.38,.23,.51,.42,.13,.18,.23,.43,.31,.76,.07,.36,.11,.78,.11,1.24Z"/><polygon class="cls-1" points="49.75 153.63 56.05 153.63 56.05 151.27 52.43 151.27 52.43 146.25 55.64 146.25 55.64 143.91 52.43 143.91 52.43 139.29 56.05 139.29 56.05 136.93 49.75 136.93 49.75 153.63"/><polygon class="cls-1" points="36.96 139.35 39.48 139.35 39.48 153.63 42.12 153.63 42.12 139.35 44.56 139.35 44.56 136.93 36.96 136.93 36.96 139.35"/><polygon class="cls-1" points="24.8 139.35 27.31 139.35 27.31 153.63 29.95 153.63 29.95 139.35 32.4 139.35 32.4 136.93 24.8 136.93 24.8 139.35"/><polygon class="cls-1" points="13.54 153.63 19.84 153.63 19.84 151.27 16.22 151.27 16.22 146.25 19.43 146.25 19.43 143.91 16.22 143.91 16.22 139.29 19.84 139.29 19.84 136.93 13.54 136.93 13.54 153.63"/><path class="cls-1" d="M5.87,145.15c.53-.27,.93-.63,1.19-1.09,.32-.57,.48-1.41,.48-2.56,0-3.78-2.02-4.57-3.72-4.57H.61v16.7H3.72c2.69,0,4.06-1.58,4.06-4.71,0-1.15-.17-1.99-.53-2.57-.28-.46-.74-.86-1.39-1.2Zm-2.7,1.15c.65,.04,1.12,.22,1.39,.55,.31,.36,.48,1.05,.48,2s-.15,1.58-.46,1.93c-.25,.28-.73,.44-1.41,.47v-4.95Zm0-2.23v-4.87h.12c.4,0,1.63,0,1.63,2.37,0,.98-.15,1.65-.43,2.01-.24,.29-.68,.46-1.32,.49Z"/></g><g><path class="cls-1" d="M49.13,47.91c-2.53-.09-4.15-1.46-4.05-3.3,.01-.2,.03-.4,.08-.59,.41-1.38,2.28-2.37,4.23-2.26,1.97,.11,3.4,1.12,3.69,2.63,.21,1.1-.26,1.94-1.09,2.6-.88,.7-1.93,.9-2.87,.93Zm0-2.23c.66-.1,1.6-.03,1.65-.83,.05-.84-.94-.87-1.56-.9-.72-.04-1.81,0-1.82,.88-.02,.82,1.04,.75,1.73,.85Z"/><path class="cls-1" d="M62.3,36.19c.07-.76-.37-1.35-.45-2.01-.07-.64-.02-1.22,.72-1.44,.74-.22,1.15,.21,1.38,.81,.24,.63,.43,1.29,.58,1.95,.45,1.93-.77,3.22-2.73,2.91-1.8-.28-3.4-2.05-3.42-3.8,0-.63,.07-1.21,.89-1.31,.73-.09,1.16,.23,1.29,.93,.18,.98,.67,1.67,1.73,1.96Z"/><path class="cls-1" d="M132.11,0H.24c0,26.52,0,53.04,0,79.56,0,.49,.2,1.04-.23,1.48v.72c.45,.38,.23,.89,.23,1.33,.01,16.34,.01,32.68,.01,49.02H132.11c.01-.56,.04-1.12,.04-1.67,0-42.96,0-85.92,0-128.88,0-.52-.02-1.04-.04-1.56ZM2.98,4.03c0-.96,.29-1.18,1.21-1.18,39.64,.02,79.28,.02,118.92,.02h.81l.06,.18c-.4,.2-.8,.41-1.2,.61-11.95,5.89-20.12,15.34-25.68,27.25-2.87,6.15-4.6,12.65-6,19.27-.65,3.08-1.54,6.11-2.55,9.1-.19,.56-.43,.84-1.03,.96-.89,.19-1.76,.51-2.62,.82-.48,.17-.77,.21-1-.38-1.7-4.17-5.14-5.87-9.32-6.53-2.63-.41-5.18-.07-7.67,.76-.73,.24-.97,.1-1.09-.62-.18-1.06-.41-2.12-.72-3.15-.21-.68,.11-.84,.63-.98,3.67-.98,6.97-2.73,10.12-4.81,4.06-2.68,4.8-7.33,1.48-10.88-1.94-2.07-3.69-4.08-4.64-6.86-.8-2.32-2.68-4.04-4.68-5.49-.58-.42-.68-.81-.54-1.48,.78-3.78-2.23-6.83-6.05-6.17-.99,.17-1.96,.44-2.82,.97-.77,.48-1.28,.5-1.55-.5-.09-.34-.3-.65-.5-.95-1.08-1.7-2.45-3.14-4.63-2.78-2.24,.37-3.98,1.6-4.73,3.9-.17,.53-.3,1.07-.47,1.71-3.08-2.11-5.92-1.25-8.62,.43-2.62,1.63-3.88,4.07-3.56,7.2,.19,1.8,1.14,3.17,2.82,3.87,.84,.35,.73,.64,.33,1.27-1.79,2.8-3.03,5.79-2.94,9.21,.06,2.14,.65,4.09,1.98,5.78,.32,.4,.46,.82,.38,1.33-.78,5.5-1.05,11.05-1.22,16.59-.02,.78-.3,1.23-.92,1.65-1.7,1.14-3.21,2.5-4.39,4.2-2.35,3.38-2.52,6.88-.58,10.49,.55,1.03,1.2,1.99,2,2.83,.45,.47,.49,.92,.34,1.51-.16,.62-.35,.8-1.05,.6-3.92-1.09-7.9-1.95-11.92-2.58-5.02-.79-10.06-1.31-15.14-1.29-.92,0-1.22-.22-1.22-1.18,.03-24.9,.03-49.79,0-74.68ZM100.67,77.19c.99,2.23,.68,3.55-1.02,5.3-1.11,1.14-2.43,1.92-3.88,2.52-1.67,.69-2.27,2.19-1.34,3.7,1.57,2.54,.42,4.53-1.55,5.82-2.69,1.76-5.69,2.67-8.86,3.05-2.84,.34-5.56,.12-7.96-1.75-1.01-.79-2.05-.38-2.95,.35-1.75,1.41-3.61,2.63-5.66,3.55-5.7,2.54-11.65,1.3-15.8-3.35-.79-.88-1.64-1.26-2.81-1.26-4.67,0-7.23-2.04-8.29-6.64-.29-1.23-.91-1.97-2.17-2.22-.86-.17-1.71-.39-2.49-.81-.85-.45-1.15-1.1-.71-1.98,.63-1.27,.27-2.27-.65-3.25-.65-.7-1.23-1.48-1.73-2.28-1.9-3.01-1.72-5.74,.53-8.49,1.8-2.21,4.1-3.79,6.65-4.99,1.18-.56,1.89-1.28,2.15-2.61,.42-2.11,1.91-3.33,3.85-4.07,1.82-.7,3.73-.79,5.64-.79,3.59-.17,6.77,.84,9.56,3.13,.99,.81,2.21,.72,3.01-.28,2.47-3.07,9.55-3.97,13.64-1.81,1.78,.94,2.98,2.37,3.69,4.23,.77,2.03,1.9,2.49,3.93,1.63,6.03-2.56,11.99-1.03,15.54,4,1.5,2.13,1.55,3.85,.03,5.94-.8,1.1-.86,2.13-.32,3.35Zm-4.25,31.67h-.12c-3.18,0-3.16,0-3.5-3.12-.23-2.14-.47-4.29-.82-6.41-.14-.81,.11-1.14,.78-1.44,1.51-.68,2.85-1.61,3.86-2.95,1.4-1.86,1.82-3.93,.93-6.09-.43-1.05-.35-1.57,.76-1.87,.29-.08,.55-.28,.91-.46,.2,1.35,.11,2.58,.04,3.79-.34,5.42-.39,10.85-.51,16.27-.05,2.3-.08,2.3-2.32,2.3Zm1.85,5.1c0,1.79-.12,1.96-1.39,2.05-2.25,.16-2.99-.26-3.22-1.84-.02-.12-.03-.24-.05-.35q-.2-1.64,1.48-1.64c.48,0,.95,0,1.43,0,2.04,.03,1.72-.26,1.76,1.78Zm-13.85-4.94c0,.68-.22,.92-.88,.93-1.08,.02-2.16,.06-3.23,.16-.78,.07-1.12-.15-1.22-.99-.36-3-.8-5.99-1.24-9.16,1.91,.59,3.74,.64,5.58,.51,.83-.06,1,.24,.99,1-.04,2.52-.04,5.03,0,7.55Zm-3.17,4.3c.44-.03,.88-.06,1.31-.09h0c.24,0,.48-.02,.72-.03,1.71-.07,1.8,.05,1.57,1.75-.08,.6-.31,.91-.95,.99-1.08,.13-2.15,.09-3.23,0-.53-.05-.73-.33-.81-.85-.23-1.6-.22-1.63,1.38-1.76Zm-8.57-10.43c-.51,.08-1.04,.11-1.52,.28-.98,.34-1.68,.02-2.32-.88,1.62-.79,3.13-1.65,4.53-2.69,.45-.33,.62-.26,.86,.23,1.1,2.23,.88,2.68-1.56,3.08Zm-6.63,1.2c-1.41,.29-2.76,.57-4.11,.84-.22,.05-.49,.17-.56-.19-.05-.26-.11-.56,.13-.77,.25-.23,4.17-.34,4.47-.13,.02,.02,.02,.07,.07,.25Zm-13.11,12.93c.05-.49,.31-.47,.63-.47,.68,0,1.35,0,2.03,0,.16,0,.32-.01,.48,0,.66,.06,1.63-.32,1.92,.19,.45,.76,.16,1.78,0,2.68-.07,.38-.35,.64-.73,.7-.54,.09-1.1,.2-1.65,.17-2.17-.14-2.91-1.1-2.67-3.26Zm-.24-4.41c-.3-3.89-.65-7.78-.97-11.67,0-.1,.05-.21,.12-.44,1.8,1.29,3.67,2.33,5.76,2.86,.44,.11,.41,.41,.42,.73,.04,2.75,.07,5.5,.13,8.25,.01,.65-.16,.94-.87,.91-1.27-.05-2.55-.02-3.83,0-.45,0-.72-.06-.76-.63Zm-16.58-6.47c0,.89-.38,1.07-1.15,1.03-1.03-.05-2.08-.08-3.11,0-1.01,.09-1.18-.36-1.18-1.24,0-5.03,1.87-9.39,4.76-13.39,.68-.93,1.39-1.84,2.43-2.73,.55,1.93,1.34,3.57,2.63,4.92,.44,.46-.04,.73-.23,1.01-1.52,2.3-3,4.61-3.66,7.34-.25,1.01-.5,2.03-.49,3.06Zm-.99,7.5c-2.07,.77-3.83-.45-3.91-2.68-.02-.47,.19-.53,.56-.53,.64,0,1.27,0,1.91,0,.36,0,.73-.05,1.07,.01,.58,.11,1.44-.43,1.65,.63,.21,1.09-.35,2.23-1.27,2.57Zm7.97-16.24c.25-.37,.54-.4,.92-.24,1.07,.46,2.19,.72,3.36,.74,.64,0,.88,.32,.93,.95,.2,2.74,.42,5.48,.66,8.22,.05,.58-.11,.84-.7,.99-2.66,.68-5.31,1.38-7.95,2.13-.61,.17-.77,.03-.81-.55-.06-.83-.17-1.66-.26-2.49,.04-3.75,1.84-6.79,3.85-9.75Zm6.49-79.13c-.21-1.96,.55-3.49,2-4.08,.76-.31,1.37-.2,1.92,.45,.65,.78,1.11,1.64,1.41,2.61,.58,1.89,2.01,2.44,3.72,1.43,1.24-.73,2.46-1.49,3.99-1.42,1.04,.05,1.73,.52,2.02,1.54,.36,1.27,.07,1.86-1.17,2.29-.34,.12-.7,.17-1.04,.28-1.66,.56-2.16,2.26-1.08,3.63,.02,.03,.06,.06,.08,.09,.76,.89,1.31,1.85,.83,3.05-.37,.92-1.81,1.62-3.46,1.61-1.03-.04-2.17-.56-2.99-1.64-.72-.94-1.65-1.28-2.74-.93-1.03,.33-1.43,1.15-1.49,2.22-.07,1.31-1.15,1.83-2.11,2.39-.8,.47-1.81,1.14-2.52,.87-.73-.28-.29-1.54-.44-2.36-.09-.51-.14-1.03-.22-1.54-.33-2.08-1.92-3.23-3.97-2.76-1.04,.24-2.05,.29-3.07,.05-1.48-.34-2.21-1.43-2-2.92,.37-2.72,3.77-5.16,6.48-4.66,.73,.14,1.18,.61,1.53,1.22,.83,1.43,1.71,1.91,2.85,1.55,1.23-.38,1.66-1.26,1.48-2.99Zm12.7,32.99c.3,1.49,.63,2.97,1.01,4.43,.19,.72,.04,1.19-.54,1.63-.65,.5-.85-.18-1.17-.41-3.19-2.24-6.8-2.82-10.59-2.75-2.09,.04-4.14,.28-6.11,1.02-2.75,1.03-4.67,2.84-5.49,5.73-.1,.34-.12,.72-.65,.94-.22-.71-.03-1.41,0-2.07,.24-4.46,.55-8.92,1.06-13.36,.13-1.12,.44-1.92,1.51-2.59,2.53-1.61,4.02-4.05,4.73-6.95,.21-.85,.46-1.41,1.51-1.45,.81-.03,1.61-.41,2.51-.66-.22,1.68,.31,3.07,1.54,4.18,.93,.84,2.01,1.29,3.29,1.11,1.53-.21,2.41-1.39,2.08-2.9-.19-.89-.49-1.77-.8-2.63-.23-.65-.75-.91-1.44-.74-.74,.19-.9,.75-.78,1.4,.12,.62,.34,1.23,.51,1.84,.05,.18,.22,.37,.02,.55-.22,.2-.45,.09-.66-.03-.74-.4-1.25-.98-1.38-1.84-.11-.77-.45-1.34-1.43-1.44,1.36-1.03,2.69-1.89,3.22-3.57,2.42,1.89,4.91,2.39,7.65,1.31,1.14-.45,2.13-1.16,2.69-2.26,.36-.72,.68-.62,1.27-.33,3.44,1.69,6.48,3.93,9.13,6.69,2.31,2.39,1.99,5.1-.77,6.96-3.03,2.04-6.27,3.63-9.8,4.63-2.25,.64-2.61,1.26-2.15,3.58Zm3.3-25.04c-.58-.21-.78-.78-.9-1.33-.09-.44-.11-.95,.29-1.2,.36-.23,.64,.21,.91,.4,1.46,1.06,2.77,2.27,3.63,3.9-1.36-.55-2.59-1.27-3.93-1.76Zm-24.57,3.51c.28-.36,.6-.63,1.02-.79,1.1-.44,1.45-.24,1.58,.91,.1,.87,.19,1.74,.24,2.25-.13,4.08-1.11,7.36-4.34,9.63-.8,.56-1.16,.48-1.49-.46-1.03-2.89-.33-5.58,.89-8.21,.55-1.2,1.3-2.28,2.1-3.33ZM3,125.51c0-13.82,0-27.65-.03-41.47,0-1.08,.26-1.4,1.38-1.39,9.73,.11,19.22,1.75,28.54,4.45,.67,.19,1.22,.59,1.81,1.01-1.94,2.34-3.65,4.83-4.97,7.57-2.68,5.55-2.84,11.3-1.39,17.16,.22,.89,.03,1.14-.76,1.43-7.29,2.64-14.39,5.69-20.88,10.01-1.19,.79-2.31,1.67-3.62,2.62-.03-.55-.07-.97-.07-1.38Zm126.36,2.9c0,.6-.16,.91-.81,.83-.28-.03-.56,0-.84,0H5.25c3.53-3.16,7.54-5.37,11.68-7.38,4.13-2.01,8.39-3.69,12.71-5.25,.48-.17,.92-.27,1.48-.06,3.42,1.3,6.24,.34,8.17-2.77,.23-.37,.53-.47,.86-.56,2.77-.76,5.55-1.47,8.3-2.28,.85-.25,.93,.08,.95,.76,.05,2.31,.17,4.62,.41,6.93,.37,3.57,2.33,4.95,6.6,4.92,.24,0,.47-.07,.71-.1,2.75-.35,4.14-1.78,4.21-4.6,.09-3.31,.07-6.63,.04-9.94,0-.74,.22-1.04,.94-1.17,4.04-.74,8.08-1.5,12.11-2.29,.66-.13,.88,0,.97,.69,.38,3.05,.99,6.06,1.24,9.13,.22,2.69,1.46,3.8,4.19,3.91,1.19,.05,2.4,.06,3.58-.04,2.21-.18,3.37-1.39,3.62-3.59,.18-1.56,.09-3.11-.16-4.65-.36-2.26-.33-4.53-.25-6.81,.03-.88,.59-.8,1.11-.89,.7-.13,.53,.49,.56,.8,.39,3.17,.97,6.31,1.08,9.51,.15,4.18,2.12,5.97,6.34,5.73,.72-.04,1.43-.05,2.13-.29,1.5-.52,2.54-1.81,2.62-3.38,.23-4.34,.47-8.69,.63-13.04,.03-.86,.28-1.14,1.13-1.23,6.66-.76,13.34-1.43,20.02-2.03,1.75-.15,3.5-.28,5.25-.46,.7-.07,.9,.16,.9,.84-.02,9.59-.01,19.18,0,28.77Zm-1.56-32.29c-8.2,.59-16.38,1.39-24.54,2.39-.83,.1-1.13-.09-1.09-.97,.18-4.55,.31-9.09,.45-13.64,.01-.39,.17-.68,.36-.99,1.25-2.01,1.41-4.13,.53-6.3-.26-.64-.18-1.07,.16-1.65,1.64-2.75,1.65-5.55-.07-8.25-2.57-4.03-6.33-6.21-11.02-6.79-.91-.11-1.22-.28-.88-1.26,1.84-5.37,2.65-11.01,4.22-16.44,2.96-10.21,7.77-19.38,15.41-26.91,4.78-4.71,10.26-8.35,16.56-10.72,1.46-.55,1.47-.53,1.47,1.05,0,14.78,0,29.56,0,44.34s-.02,29.64,.03,44.46c0,1.28-.43,1.6-1.58,1.68Z"/></g></svg>