<?xml version="1.0" encoding="UTF-8"?><svg id="Livello_1" xmlns="http://www.w3.org/2000/svg" viewBox="0 0 130.43 16.2"><defs><style>.cls-1{fill:#1d1d1b;}</style></defs><path class="cls-1" d="M128.14,8.4c0-2.5-.22-4.22-.66-5.15s-1.24-1.41-2.42-1.41h-.27V14.29c1.33,0,2.21-.4,2.66-1.21,.46-.8,.69-2.37,.69-4.68Zm.47,6.74c-.79,.7-2.2,1.06-4.24,1.06h-1.76V0h2.68c.82,0,1.51,.1,2.07,.29,.51,.17,.97,.48,1.38,.92,.61,.68,1.04,1.55,1.3,2.63,.26,1.04,.39,2.52,.39,4.48,0,1.78-.15,3.23-.43,4.36-.28,1.07-.74,1.89-1.39,2.46Z"/><path class="cls-1" d="M108.46,16.2V0h2.03l2.17,6.46c.63,1.83,1.19,3.78,1.67,5.84-.18-1.25-.31-2.37-.39-3.39-.08-1.01-.13-1.96-.13-2.86V0h2.19V16.2h-2.04l-2.44-7.29c-.23-.68-.44-1.37-.64-2.09-.2-.71-.38-1.46-.55-2.24-.01-.1-.03-.22-.06-.35-.04-.14-.07-.3-.11-.48,.02,.18,.03,.33,.05,.46,.01,.13,.02,.24,.03,.33l.11,1.64,.12,2c.01,.12,.01,.26,.02,.42v.54l.12,7.06h-2.15Z"/><path class="cls-1" d="M99.64,11.34l-.48-2.56c-.32-1.76-.58-3.64-.79-5.62-.09,.97-.22,1.95-.37,2.95-.16,.99-.34,2.05-.55,3.17l-.4,2.06h2.59Zm-5.61,4.86L97.56,0h1.69l3.47,16.2h-2.16l-.6-3.16h-3.21l-.62,3.16h-2.1Z"/><polygon class="cls-1" points="88.85 14.34 88.85 16.2 83.11 16.2 83.11 0 85.29 0 85.29 14.34 88.85 14.34"/><path class="cls-1" d="M63.21,7.18c.84,0,1.44-.2,1.79-.58,.35-.4,.53-1.06,.53-1.99,0-.5-.04-.93-.11-1.29-.08-.36-.19-.64-.35-.86-.16-.23-.36-.39-.61-.5-.25-.1-.54-.16-.88-.16h-.37V7.18Zm0,1.09v7.93h-2.18V0h2.87c1.19,0,2.07,.3,2.65,.86,.74,.74,1.1,1.85,1.1,3.37,0,1.16-.19,2.09-.58,2.79-.39,.69-.94,1.14-1.66,1.3l2.98,7.88h-2.21l-2.97-7.93Z"/><polygon class="cls-1" points="49.14 16.2 49.14 0 54.94 0 54.94 1.86 51.32 1.86 51.32 6.98 54.53 6.98 54.53 8.82 51.32 8.82 51.32 14.34 54.94 14.34 54.94 16.2 49.14 16.2"/><polygon class="cls-1" points="38.87 1.92 36.35 1.92 36.35 0 43.45 0 43.45 1.92 41.01 1.92 41.01 16.2 38.87 16.2 38.87 1.92"/><polygon class="cls-1" points="26.7 1.92 24.19 1.92 24.19 0 31.29 0 31.29 1.92 28.84 1.92 28.84 16.2 26.7 16.2 26.7 1.92"/><polygon class="cls-1" points="15.11 6.98 18.32 6.98 18.32 8.82 15.11 8.82 15.11 14.34 18.73 14.34 18.73 16.2 12.93 16.2 12.93 0 18.73 0 18.73 1.86 15.11 1.86 15.11 6.98"/><path class="cls-1" d="M2.06,14.32c.89,0,1.51-.18,1.85-.56,.35-.4,.52-1.08,.52-2.1s-.18-1.75-.54-2.16c-.35-.42-.96-.64-1.83-.64v5.46Zm.2-12.56h-.1s-.09,0-.1,0V7.14c.84,0,1.43-.19,1.76-.59,.33-.41,.49-1.13,.49-2.17,0-1.74-.63-2.62-1.88-2.62h-.17Zm.6,14.44H0V0H2.96c2.31,0,3.47,1.45,3.47,4.32,0,1.1-.15,1.91-.45,2.44s-.83,.94-1.59,1.2c.87,.36,1.47,.81,1.79,1.34,.33,.54,.49,1.36,.49,2.44,0,2.97-1.27,4.46-3.81,4.46Z"/></svg>