<?xml version="1.0" encoding="UTF-8"?><svg id="Livello_1" xmlns="http://www.w3.org/2000/svg" viewBox="0 0 156.24 227.52"><defs><style>.cls-1{fill:#f6f5ee;}.cls-2{fill:#f6f6f6;}.cls-3{fill:#e6c0bf;}.cls-4{fill:#a3d2eb;}.cls-5{fill:#1d1d1b;}</style></defs><path class="cls-5" d="M156.24,119.28v3.36c-.08,.22-.19,.44-.23,.67-.4,2.46-1.35,4.68-2.86,6.64-.45,.59-.47,1.03-.16,1.7,2.26,4.86,2.18,9.58-.97,14.07-.27,.37-.39,.76-.38,1.22,.11,8.76-.77,17.5-.79,26.24-.03,12.84-1.15,25.61-1.54,38.42-.11,3.48-2.57,6.22-6,6.8-2.75,.46-5.5,.4-8.22-.23-3.59-.83-5.83-3.24-6.49-6.86-.44-2.45-.2-4.95-.48-7.4-.9-7.66-1.93-15.3-2.95-22.94-.12-.9,.2-2.21-.53-2.58-.61-.3-1.69,.43-2.59,.56-.83,.12-1.01,.52-.98,1.28,.16,3.64,0,7.27-.06,10.91-.05,3.59-.15,7.21,.45,10.77,.56,3.29,.87,6.55,.48,9.89-.45,3.97-2.5,6.15-6.44,6.64-2.84,.35-5.67,.34-8.5,.04-4.22-.45-6.34-2.68-6.69-6.91-.18-2.19-.29-4.39-.63-6.56-.69-4.46-1.44-8.91-2.03-13.39-.57-4.42-.69-8.93-2.72-13.05-.63-1.3-.53-1.34-1.67-.5-7.44,5.51-15.5,9.36-25.02,9.28-.63,0-.82,.22-.81,.83,.08,4,.14,8,.17,12,.03,6.55,.33,13.11-.17,19.65-.29,3.9-2.69,6.43-6.54,7.22-.93,.2-1.91,.08-2.81,.47h-1.68c-1.32-.23-2.67-.4-3.97-.71-3.48-.83-5.71-2.99-6.36-6.53-.61-3.3-1.01-6.64-1.06-10-.05-3.15-.13-6.31-.45-9.45-.8-7.99-1.63-15.98-2.03-24-.06-1.19-.43-1.57-1.56-1.59-2.99-.06-5.86-.69-8.57-1.96-.6-.29-.87-.1-1.27,.36-1.79,2.12-3.09,4.58-4.46,6.93-3.06,5.24-4.57,10.96-3.94,17.11,.24,2.42,.74,4.81,.59,7.27-.25,4.11-2.74,7.38-6.65,8.64-2.38,.76-4.8,.68-7.23,.35-3.32-.45-5.5-2.34-6.78-5.37-1.2-2.84-1.56-5.85-1.92-8.87-.25-2-.49-4.01-.74-6.02v-4.08c.42-.85,.23-1.78,.34-2.68,.98-8.09,3.92-15.43,8.39-22.2,2.06-3.12,4.16-6.22,6.93-8.89-.39-.21-.66-.37-.94-.51-4.75-2.36-6.1-5.64-4.31-10.62,.22-.61-.01-.88-.34-1.24-1.57-1.71-3.01-3.53-4.21-5.51-3.82-6.3-4.61-12.78-.95-19.42,2.66-4.85,6.72-8.39,11.25-11.41,.76-.5,1.08-1.05,1.09-1.94,.03-2.4,.13-4.79,.22-7.19,.37-9.18,1.02-18.34,2.22-27.46,.2-1.48,.27-2.8-1.05-3.85-.36-.28-.57-.76-.81-1.17-3.21-5.36-3.58-11.08-2.09-17,1.2-4.79,3.49-9.07,6.27-13.1,.25-.36,1.01-.84-.16-1.13-6.01-1.49-8.69-7.09-7.03-13.14,1.66-6.07,6.12-9.32,11.76-11.25,2.06-.7,4.2-.95,6.38-.63,2.61,.39,4.67,1.69,6.25,3.78,.1-.12,.14-.14,.14-.17,.02-.36,.01-.72,.05-1.07,.38-3.63,1.28-6.96,4.46-9.29,1.64-1.19,3.44-1.94,5.34-2.51h1.68c4.47,1.02,6.63,4.39,8.35,8.21,.16,.36,.31,.73,.46,1.1,.14,.33,.27,.66,.43,1.05,2.07-1.22,4.12-2.39,6.4-3.04,3.1-.89,6.14-.91,9.08,.63,3.12,1.62,4.17,4.46,4.51,7.69,.16,1.52,.15,3.06-.66,4.43-.38,.65,.08,.83,.48,1.1,3.29,2.26,6.17,4.95,8.53,8.18,2.3,3.12,3.97,6.54,4.66,10.39,.12,.66,.41,1.14,.94,1.59,2.5,2.11,5.02,4.23,7.03,6.84,5.18,6.7,3.8,15.13-3.26,19.81-6.82,4.53-14.02,8.27-22,10.33-.93,.24-1.09,.67-.88,1.53,.73,3.03,1.43,6.06,2.07,9.1,.2,1,.48,1.14,1.46,.77,8.14-3.02,16.34-3.23,24.41,.1,5.39,2.22,9.09,6.27,11.09,11.77,.35,.97,.68,.94,1.5,.6,8.95-3.73,17.91-4.19,26.73,.33,5.29,2.71,9.63,6.54,12.43,11.92,.8,1.53,1.11,3.22,1.6,4.85Zm-6.63,8.55c3.11-3.95,3.49-8.53,.7-12.69-4.85-7.25-11.67-11.33-20.49-11.72-4.76-.21-9.27,.88-13.57,2.89-2.44,1.15-5.02,.09-5.8-2.4-1.77-5.61-5.52-9.26-11.05-11.07-5.09-1.66-10.31-1.64-15.5-.55-4.03,.84-7.62,2.53-10.42,5.71-1.33,1.5-3.58,1.52-5.24,.27-.64-.48-1.24-1.02-1.89-1.48-4.03-2.85-8.45-4.49-13.44-4.81-5.14-.34-10.23-.41-15.19,1.15-5.18,1.63-8.76,4.79-9.69,10.43-.24,1.43-1.17,2.41-2.52,2.99-2.05,.9-4,1.99-5.89,3.19-4.01,2.55-7.67,5.5-10.35,9.5-3.02,4.51-3.44,9.25-1.15,14.2,1.34,2.9,3.25,5.4,5.41,7.72,1.46,1.56,1.66,3.01,.75,4.93-1.14,2.42-.64,4,1.7,5.28,1.56,.85,3.26,1.29,4.98,1.66,2.97,.63,3.64,1.45,4.24,4.38,1.28,6.22,4.58,10.82,10.83,12.89,2.49,.83,5.09,.97,7.7,.9,1.5-.04,2.7,.51,3.65,1.69,1.1,1.38,2.4,2.56,3.77,3.68,5.15,4.2,10.99,6.65,17.68,6.7,4.49,.04,8.76-1.12,12.84-2.99,4.09-1.87,7.81-4.34,11.29-7.18,2.1-1.71,3.85-1.7,5.9,.04,.76,.65,1.63,1.14,2.55,1.55,2.97,1.33,6.11,1.8,8.87,1.78,5.35,0,10.04-1.1,14.63-2.69,3.56-1.24,6.99-2.72,9.88-5.24,3.62-3.16,4.4-7.31,1.8-11.38-1.66-2.58-.67-5.61,2.24-6.66,3.07-1.1,5.79-2.86,8.12-5.19,3.87-3.85,4.5-7.46,2.11-12.37-.9-1.86-.75-3.47,.55-5.11Zm-3.34,35.94c.23-4.18,.42-8.37,.36-12.79-1.97,1.26-3.78,2.36-5.75,3.12-.83,.32-.93,.6-.48,1.42,2.82,5.1,2.29,10.43-1.45,14.67-2.29,2.6-5.21,4.34-8.34,5.72-.75,.33-.95,.69-.84,1.53,.93,6.93,1.81,13.87,2.65,20.81,.1,.78,.36,.98,1.11,.97,3.2-.04,6.4-.02,9.6-.02,1.92,0,1.91,0,2.04-1.88,.33-4.9,.48-9.82,.48-14.74-.01-6.27,.28-12.54,.62-18.81Zm-1.92,47.2c.04-2.03-.02-4.06,0-6.08,.01-.66-.33-.7-.82-.69-1.6,.01-3.19,0-4.79,0s-3.19,.01-4.78,0c-.45-.01-.75,.03-.77,.62-.04,1.91,0,3.82,.35,5.71,.29,1.61,1.27,2.5,2.84,2.83,1.86,.39,3.72,.43,5.59,.21,1.63-.2,2.34-.95,2.38-2.6Zm-27.48,.96c.29-1.66,.32-3.33,.26-5.02-.02-.55-.2-.79-.77-.75-3.59,.21-7.18,.4-10.77,.6-.4,.02-.7,.1-.65,.62,.17,1.54,.28,3.1,.49,4.64,.11,.89,.69,1.41,1.62,1.47,1.27,.09,2.55,.17,3.68,.25,1.66-.06,3.17-.07,4.68-.32,.88-.14,1.32-.65,1.46-1.49Zm-1.56-10.68c.81-.04,.96-.34,.92-1.11-.12-2.35-.18-4.71-.18-7.07,0-3.51,.1-7.03,.1-10.54,0-2.22-.05-2.22-2.2-2.08-.16,.01-.32,0-.48,.01-4.42,.26-8.77,0-13.14-1.77,.62,1.92,1.29,3.52,1.47,5.31,.54,5.65,1.31,11.27,2.25,16.86,.12,.7,.28,1.02,1.1,.96,3.38-.24,6.77-.41,10.16-.57Zm-19.18-137.06c4.25-2.94,5.16-7.79,2.6-12.27-1.1-1.91-2.71-3.35-4.28-4.83-5.4-5.07-11.44-9.19-18.2-12.25-.72-.33-1.12-.33-1.36,.53-.25,.94-.82,1.72-1.44,2.46-4.14,4.85-12.24,5.55-17.66,1.51-.82-.62-1.56-1.33-2.45-2.08-.2,1.7-.75,3.17-1.8,4.33-3.54,3.96-8.1,5.97-13.29,6.6-.88,.11-1.18,.29-1.35,1.18-1.46,7.49-5.26,13.38-11.98,17.2-.57,.33-.79,.74-.85,1.32-.43,3.77-.93,7.53-1.27,11.3-.44,4.94-.8,9.88-1.09,14.82-.2,3.26-.42,6.53-.36,9.82,2.27-.63,2.52-.86,3.08-2.93,.37-1.4,.89-2.73,1.63-3.97,2.51-4.25,6.45-6.54,11.03-7.87,5.34-1.54,10.77-1.56,16.27-1.16,5.54,.4,10.51,2.18,15.04,5.31,.76,.52,1.5,1.51,2.23,1.49,.7-.02,1.32-1.15,2.08-1.63,.88-.55,.9-1.19,.68-2.08-.95-3.92-2.03-7.81-2.6-11.8-.35-2.36,.44-3.56,2.71-4.37,.44-.16,.9-.29,1.37-.42,7.72-2.08,14.72-5.69,21.26-10.21Zm-8.45-27.69c.22-.28,.03-.45-.04-.61-2.48-5.26-6.51-9.11-11.29-12.26-.32-.21-.58-.13-.89-.01-.72,.29-1.56,2.7-1.24,3.66,.58,1.76,1.26,3.41,3.43,3.77,.45,.07,.86,.39,1.3,.58,3.05,1.38,5.92,3.08,8.73,4.87Zm-11.66-18.77c.36-3.71-.83-6.79-5.23-6.95-3.19-.11-5.88,1.37-8.43,3.04-2.74,1.8-5.57,.73-6.35-2.43-.56-2.24-1.68-4.22-3.25-5.92-.76-.81-1.69-1.47-2.84-1.31-2.24,.33-4.11,1.44-5.23,3.41-1.16,2.06-1.56,4.34-1.08,6.72,.33,1.63,.13,3.12-1.36,4.16-2.09,1.45-4.69,.68-5.73-1.76s-2.87-3.65-5.45-3.47c-4.53,.31-8.29,2.22-10.98,5.96-1.11,1.55-1.68,3.34-1.68,5.28-.01,3.1,1.55,5.26,4.55,5.89,1.99,.42,3.99,.71,6.1,.09,4.09-1.2,7.29,.89,7.84,5,.33,2.45,.67,4.91,.6,7.4-.03,1.42,.19,1.62,1.6,1.26,2.72-.71,5.3-1.76,7.58-3.43,1.58-1.16,2.66-2.55,2.65-4.69-.02-1.76,1.18-3.05,2.79-3.48,1.58-.41,3.02,.14,4.07,1.58,3.02,4.13,8.85,5.08,13.03,2.15,1.95-1.38,2.64-3.38,1.96-5.68-.4-1.33-1.05-2.54-2.03-3.49-2.49-2.45-.67-5.89,2.14-6.39,1.11-.2,2.17-.54,3.15-1.09,.76-.42,1.5-.97,1.58-1.85Zm-14.15,190.36c.62,.01,.84-.18,.83-.81-.05-1.8-.03-3.6-.06-5.39-.06-4.68-.15-9.35-.18-14.02-.01-.9-.27-1.35-1.22-1.53-1.05-.19-2.06-.6-3.07-.97-3.79-1.38-7.13-3.53-10.53-6.33,.18,2.4,.33,4.46,.48,6.51,.5,7.25,1.65,14.45,1.79,21.73,.01,.62,.18,.82,.81,.81,3.72-.02,7.44-.02,11.15,0Zm.56,11.62c.33-1.94,.24-3.89,.24-5.85,.01-.63-.24-.8-.85-.79-1.79,.03-3.59,0-5.39,0s-3.67,.01-5.5,0c-.55,0-.8,.12-.71,.74,.25,1.82,.42,3.65,.7,5.46,.2,1.27,.94,2.19,2.23,2.56,2.37,.68,4.77,.83,7.19,.2,1.22-.31,1.88-1.08,2.09-2.32ZM33.47,42.18c.11-1.64-.35-3.88-.59-6.14-.09-.89-.4-1.85-1.51-1.84-1.81,0-3.63,.49-4.75,1.88-3.1,3.9-5.55,8.2-6.86,13.05-1.27,4.71-1.18,9.31,1.2,13.72,.37,.69,.7,.93,1.47,.5,2.32-1.31,4.42-2.89,6.09-4.97,3.65-4.54,4.91-9.85,4.95-16.2Zm-6.62,128.85c.32-.47,.86-.81,.17-1.49-3.27-3.22-5.06-7.2-5.96-11.73-.54,.15-.8,.53-1.1,.83-5.83,5.88-10.11,12.71-12.78,20.56-1.7,4.98-2.37,10.08-2.01,15.33,.06,.83,.27,1.15,1.19,1.14,3.36-.07,6.72-.07,10.07,0,.97,.02,1.22-.33,1.22-1.21,.01-2.78,.52-5.47,1.22-8.15,1.48-5.72,4.72-10.5,7.98-15.28Zm-14.25,38.21c3.9-.01,5.83-1.96,5.76-5.85-.01-.6-.11-1.19-.12-1.79-.01-.77-.37-1-1.13-.98-1.67,.06-3.35,.02-5.03,.02s-3.36,.07-5.03-.03c-1.05-.05-1.21,.37-1.03,1.23,.2,.9,.31,1.81,.54,2.7,.96,3.77,1.92,4.54,5.81,4.7h.23Z"/><path class="cls-1" d="M150.31,115.14c2.79,4.16,2.41,8.74-.7,12.69-1.3,1.64-1.45,3.25-.55,5.11,2.39,4.91,1.76,8.52-2.11,12.37-2.33,2.33-5.05,4.09-8.12,5.19-2.91,1.05-3.9,4.08-2.24,6.66,2.6,4.07,1.82,8.22-1.8,11.38-2.89,2.52-6.32,4-9.88,5.24-4.59,1.59-9.28,2.69-14.63,2.69-2.76,.02-5.9-.45-8.87-1.78-.92-.41-1.79-.9-2.55-1.55-2.05-1.74-3.8-1.75-5.9-.04-3.48,2.84-7.2,5.31-11.29,7.18-4.08,1.87-8.35,3.03-12.84,2.99-6.69-.05-12.53-2.5-17.68-6.7-1.37-1.12-2.67-2.3-3.77-3.68-.95-1.18-2.15-1.73-3.65-1.69-2.61,.07-5.21-.07-7.7-.9-6.25-2.07-9.55-6.67-10.83-12.89-.6-2.93-1.27-3.75-4.24-4.38-1.72-.37-3.42-.81-4.98-1.66-2.34-1.28-2.84-2.86-1.7-5.28,.91-1.92,.71-3.37-.75-4.93-2.16-2.32-4.07-4.82-5.41-7.72-2.29-4.95-1.87-9.69,1.15-14.2,2.68-4,6.34-6.95,10.35-9.5,1.89-1.2,3.84-2.29,5.89-3.19,1.35-.58,2.28-1.56,2.52-2.99,.93-5.64,4.51-8.8,9.69-10.43,4.96-1.56,10.05-1.49,15.19-1.15,4.99,.32,9.41,1.96,13.44,4.81,.65,.46,1.25,1,1.89,1.48,1.66,1.25,3.91,1.23,5.24-.27,2.8-3.18,6.39-4.87,10.42-5.71,5.19-1.09,10.41-1.11,15.5,.55,5.53,1.81,9.28,5.46,11.05,11.07,.78,2.49,3.36,3.55,5.8,2.4,4.3-2.01,8.81-3.1,13.57-2.89,8.82,.39,15.64,4.47,20.49,11.72Z"/><path class="cls-2" d="M146.63,150.98c.06,4.42-.13,8.61-.36,12.79-.34,6.27-.63,12.54-.62,18.81,0,4.92-.15,9.84-.48,14.74-.13,1.88-.12,1.88-2.04,1.88-3.2,0-6.4-.02-9.6,.02-.75,.01-1.01-.19-1.11-.97-.84-6.94-1.72-13.88-2.65-20.81-.11-.84,.09-1.2,.84-1.53,3.13-1.38,6.05-3.12,8.34-5.72,3.74-4.24,4.27-9.57,1.45-14.67-.45-.82-.35-1.1,.48-1.42,1.97-.76,3.78-1.86,5.75-3.12Z"/><path class="cls-4" d="M144.35,204.89c-.02,2.02,.04,4.05,0,6.08-.04,1.65-.75,2.4-2.38,2.6-1.87,.22-3.73,.18-5.59-.21-1.57-.33-2.55-1.22-2.84-2.83-.35-1.89-.39-3.8-.35-5.71,.02-.59,.32-.63,.77-.62,1.59,.01,3.19,0,4.78,0s3.19,.01,4.79,0c.49-.01,.83,.03,.82,.69Z"/><path class="cls-4" d="M117.13,206.91c.06,1.69,.03,3.36-.26,5.02-.14,.84-.58,1.35-1.46,1.49-1.51,.25-3.02,.26-4.68,.32-1.13-.08-2.41-.16-3.68-.25-.93-.06-1.51-.58-1.62-1.47-.21-1.54-.32-3.1-.49-4.64-.05-.52,.25-.6,.65-.62,3.59-.2,7.18-.39,10.77-.6,.57-.04,.75,.2,.77,.75Z"/><path class="cls-2" d="M116.23,200.14c.04,.77-.11,1.07-.92,1.11-3.39,.16-6.78,.33-10.16,.57-.82,.06-.98-.26-1.1-.96-.94-5.59-1.71-11.21-2.25-16.86-.18-1.79-.85-3.39-1.47-5.31,4.37,1.77,8.72,2.03,13.14,1.77,.16-.01,.32,0,.48-.01,2.15-.14,2.2-.14,2.2,2.08,0,3.51-.1,7.03-.1,10.54,0,2.36,.06,4.72,.18,7.07Z"/><path class="cls-2" d="M98.73,51.92c2.56,4.48,1.65,9.33-2.6,12.27-6.54,4.52-13.54,8.13-21.26,10.21-.47,.13-.93,.26-1.37,.42-2.27,.81-3.06,2.01-2.71,4.37,.57,3.99,1.65,7.88,2.6,11.8,.22,.89,.2,1.53-.68,2.08-.76,.48-1.38,1.61-2.08,1.63-.73,.02-1.47-.97-2.23-1.49-4.53-3.13-9.5-4.91-15.04-5.31-5.5-.4-10.93-.38-16.27,1.16-4.58,1.33-8.52,3.62-11.03,7.87-.74,1.24-1.26,2.57-1.63,3.97-.56,2.07-.81,2.3-3.08,2.93-.06-3.29,.16-6.56,.36-9.82,.29-4.94,.65-9.88,1.09-14.82,.34-3.77,.84-7.53,1.27-11.3,.06-.58,.28-.99,.85-1.32,6.72-3.82,10.52-9.71,11.98-17.2,.17-.89,.47-1.07,1.35-1.18,5.19-.63,9.75-2.64,13.29-6.6,1.05-1.16,1.6-2.63,1.8-4.33,.89,.75,1.63,1.46,2.45,2.08,5.42,4.04,13.52,3.34,17.66-1.51,.62-.74,1.19-1.52,1.44-2.46,.24-.86,.64-.86,1.36-.53,6.76,3.06,12.8,7.18,18.2,12.25,1.57,1.48,3.18,2.92,4.28,4.83Zm-28.3,2.92c3.21-.03,5.25-2.58,4.49-5.73-.32-1.35-.75-2.69-1.2-4.01-.55-1.6-1.57-2.21-2.86-1.81s-1.79,1.52-1.36,3.12c.26,.96,.58,1.91,.87,2.86,.1,.33,.39,.73,.06,.99-.29,.23-.7-.03-1.01-.17-1.53-.71-2.38-1.92-2.66-3.59-.26-1.61-1.09-2.32-2.44-2.17-1.33,.15-1.96,.96-1.95,2.52,0,4.03,4.03,8.02,8.06,7.99Zm-16.28,3.28c3.56,.02,5.94-2.52,5.28-5.82-.36-1.79-.94-3.54-1.55-5.27-.53-1.52-1.74-2.1-3.12-1.67-1.21,.38-1.76,1.62-1.35,3.16,.28,1.04,.68,2.05,.93,3.1,.13,.53,.75,1.23,.18,1.62-.55,.37-1.31-.02-1.89-.4-.37-.24-.71-.52-1.04-.81-1.07-.97-1.38-2.28-1.62-3.64-.25-1.36-1.14-1.96-2.51-1.85-1.33,.1-2.07,.89-2.13,2.26-.21,4.6,4.23,9.28,8.82,9.32Zm-4.76,14.02c3.08-2.52,2.9-6.58-.38-8.84-3.2-2.21-8.29-2.16-11.42,.14-1.47,1.07-2.34,2.48-2.35,4.35,0,1.48,.49,2.65,1.56,3.77,2.93,3.05,9.22,3.34,12.59,.58Z"/><path class="cls-2" d="M87.64,35.89c.07,.16,.26,.33,.04,.61-2.81-1.79-5.68-3.49-8.73-4.87-.44-.19-.85-.51-1.3-.58-2.17-.36-2.85-2.01-3.43-3.77-.32-.96,.52-3.37,1.24-3.66,.31-.12,.57-.2,.89,.01,4.78,3.15,8.81,7,11.29,12.26Z"/><path class="cls-1" d="M70.79,10.78c4.4,.16,5.59,3.24,5.23,6.95-.08,.88-.82,1.43-1.58,1.85-.98,.55-2.04,.89-3.15,1.09-2.81,.5-4.63,3.94-2.14,6.39,.98,.95,1.63,2.16,2.03,3.49,.68,2.3-.01,4.3-1.96,5.68-4.18,2.93-10.01,1.98-13.03-2.15-1.05-1.44-2.49-1.99-4.07-1.58-1.61,.43-2.81,1.72-2.79,3.48,.01,2.14-1.07,3.53-2.65,4.69-2.28,1.67-4.86,2.72-7.58,3.43-1.41,.36-1.63,.16-1.6-1.26,.07-2.49-.27-4.95-.6-7.4-.55-4.11-3.75-6.2-7.84-5-2.11,.62-4.11,.33-6.1-.09-3-.63-4.56-2.79-4.55-5.89,0-1.94,.57-3.73,1.68-5.28,2.69-3.74,6.45-5.65,10.98-5.96,2.58-.18,4.41,1.03,5.45,3.47s3.64,3.21,5.73,1.76c1.49-1.04,1.69-2.53,1.36-4.16-.48-2.38-.08-4.66,1.08-6.72,1.12-1.97,2.99-3.08,5.23-3.41,1.15-.16,2.08,.5,2.84,1.31,1.57,1.7,2.69,3.68,3.25,5.92,.78,3.16,3.61,4.23,6.35,2.43,2.55-1.67,5.24-3.15,8.43-3.04Z"/><path class="cls-5" d="M74.92,49.11c.76,3.15-1.28,5.7-4.49,5.73-4.03,.03-8.05-3.96-8.06-7.99-.01-1.56,.62-2.37,1.95-2.52,1.35-.15,2.18,.56,2.44,2.17,.28,1.67,1.13,2.88,2.66,3.59,.31,.14,.72,.4,1.01,.17,.33-.26,.04-.66-.06-.99-.29-.95-.61-1.9-.87-2.86-.43-1.6,.07-2.72,1.36-3.12s2.31,.21,2.86,1.81c.45,1.32,.88,2.66,1.2,4.01Z"/><path class="cls-2" d="M62.7,207.28c.01,.63-.21,.82-.83,.81-3.71-.02-7.43-.02-11.15,0-.63,.01-.8-.19-.81-.81-.14-7.28-1.29-14.48-1.79-21.73-.15-2.05-.3-4.11-.48-6.51,3.4,2.8,6.74,4.95,10.53,6.33,1.01,.37,2.02,.78,3.07,.97,.95,.18,1.21,.63,1.22,1.53,.03,4.67,.12,9.34,.18,14.02,.03,1.79,.01,3.59,.06,5.39Z"/><path class="cls-4" d="M62.67,213.86c0,1.96,.09,3.91-.24,5.85-.21,1.24-.87,2.01-2.09,2.32-2.42,.63-4.82,.48-7.19-.2-1.29-.37-2.03-1.29-2.23-2.56-.28-1.81-.45-3.64-.7-5.46-.09-.62,.16-.74,.71-.74,1.83,.02,3.67,0,5.5,0s3.6,.02,5.39,0c.61-.01,.86,.16,.85,.79Z"/><path class="cls-5" d="M59.43,52.3c.66,3.3-1.72,5.84-5.28,5.82-4.59-.04-9.03-4.72-8.82-9.32,.06-1.37,.8-2.16,2.13-2.26,1.37-.11,2.26,.49,2.51,1.85,.24,1.36,.55,2.67,1.62,3.64,.33,.29,.67,.57,1.04,.81,.58,.38,1.34,.77,1.89,.4,.57-.39-.05-1.09-.18-1.62-.25-1.05-.65-2.06-.93-3.1-.41-1.54,.14-2.78,1.35-3.16,1.38-.43,2.59,.15,3.12,1.67,.61,1.73,1.19,3.48,1.55,5.27Z"/><path class="cls-5" d="M49.01,63.3c3.28,2.26,3.46,6.32,.38,8.84-3.37,2.76-9.66,2.47-12.59-.58-1.07-1.12-1.56-2.29-1.56-3.77,.01-1.87,.88-3.28,2.35-4.35,3.13-2.3,8.22-2.35,11.42-.14Zm-2.37,5.44c.77-.68,.76-1.2-.09-1.83-.93-.7-2.03-.85-3.21-.93-1.15,.08-2.33,.25-3.29,1.08-.6,.52-.6,1.06,0,1.61,1.45,1.34,5.1,1.38,6.59,.07Z"/><path class="cls-3" d="M46.55,66.91c.85,.63,.86,1.15,.09,1.83-1.49,1.31-5.14,1.27-6.59-.07-.6-.55-.6-1.09,0-1.61,.96-.83,2.14-1,3.29-1.08,1.18,.08,2.28,.23,3.21,.93Z"/><path class="cls-2" d="M32.88,36.04c.24,2.26,.7,4.5,.59,6.14-.04,6.35-1.3,11.66-4.95,16.2-1.67,2.08-3.77,3.66-6.09,4.97-.77,.43-1.1,.19-1.47-.5-2.38-4.41-2.47-9.01-1.2-13.72,1.31-4.85,3.76-9.15,6.86-13.05,1.12-1.39,2.94-1.88,4.75-1.88,1.11-.01,1.42,.95,1.51,1.84Z"/><path class="cls-2" d="M27.02,169.54c.69,.68,.15,1.02-.17,1.49-3.26,4.78-6.5,9.56-7.98,15.28-.7,2.68-1.21,5.37-1.22,8.15,0,.88-.25,1.23-1.22,1.21-3.35-.07-6.71-.07-10.07,0-.92,.01-1.13-.31-1.19-1.14-.36-5.25,.31-10.35,2.01-15.33,2.67-7.85,6.95-14.68,12.78-20.56,.3-.3,.56-.68,1.1-.83,.9,4.53,2.69,8.51,5.96,11.73Z"/><path class="cls-4" d="M18.36,203.39c.07,3.89-1.86,5.84-5.76,5.85h-.23c-3.89-.16-4.85-.93-5.81-4.7-.23-.89-.34-1.8-.54-2.7-.18-.86-.02-1.28,1.03-1.23,1.67,.1,3.35,.03,5.03,.03s3.36,.04,5.03-.02c.76-.02,1.12,.21,1.13,.98,.01,.6,.11,1.19,.12,1.79Z"/></svg>