<?xml version="1.0" encoding="UTF-8"?><svg id="Livello_1" xmlns="http://www.w3.org/2000/svg" viewBox="0 0 156.24 227.52"><defs><style>.cls-1{fill:#1d1d1b;}</style></defs><path class="cls-1" d="M50.88,0c4.47,1.02,6.62,4.39,8.34,8.21,.16,.36,.32,.73,.47,1.1,.14,.33,.26,.66,.42,1.05,2.08-1.22,4.12-2.39,6.4-3.04,3.1-.89,6.14-.91,9.08,.63,3.12,1.63,4.18,4.47,4.52,7.7,.16,1.51,.15,3.05-.66,4.43-.38,.64,.08,.82,.48,1.09,3.29,2.26,6.17,4.96,8.53,8.18,2.3,3.13,3.97,6.55,4.66,10.4,.12,.66,.4,1.14,.93,1.59,2.5,2.11,5.02,4.23,7.04,6.84,5.18,6.7,3.79,15.13-3.26,19.81-6.82,4.53-14.02,8.27-22,10.33-.93,.24-1.09,.67-.88,1.53,.73,3.02,1.43,6.05,2.07,9.1,.21,1,.49,1.13,1.46,.77,8.14-3.02,16.34-3.23,24.41,.1,5.39,2.22,9.09,6.27,11.09,11.77,.35,.97,.67,.94,1.5,.6,8.95-3.73,17.91-4.19,26.73,.33,5.3,2.71,9.63,6.55,12.43,11.92,.8,1.54,1.11,3.22,1.6,4.85v3.36c-.08,.22-.19,.44-.23,.67-.4,2.45-1.36,4.67-2.86,6.64-.45,.59-.47,1.03-.16,1.7,2.26,4.86,2.18,9.58-.97,14.07-.26,.38-.39,.76-.38,1.22,.11,8.76-.76,17.5-.79,26.24-.03,12.84-1.15,25.61-1.55,38.42-.11,3.48-2.57,6.22-6,6.8-2.75,.46-5.49,.4-8.22-.23-3.59-.83-5.83-3.24-6.49-6.85-.45-2.46-.2-4.95-.49-7.4-.89-7.66-1.93-15.3-2.95-22.95-.12-.89,.2-2.21-.53-2.57-.61-.31-1.7,.42-2.59,.56-.83,.12-1.01,.52-.98,1.28,.16,3.63,0,7.27-.06,10.9-.05,3.6-.15,7.21,.45,10.77,.55,3.29,.86,6.56,.48,9.89-.46,3.97-2.51,6.15-6.45,6.64-2.83,.35-5.67,.34-8.5,.04-4.21-.45-6.33-2.68-6.69-6.91-.18-2.19-.29-4.39-.63-6.56-.69-4.46-1.45-8.91-2.03-13.39-.57-4.42-.7-8.93-2.72-13.06-.63-1.29-.53-1.34-1.67-.49-7.44,5.51-15.51,9.36-25.02,9.28-.63,0-.82,.21-.81,.83,.07,4,.14,7.99,.16,11.99,.03,6.55,.33,13.11-.16,19.66-.29,3.89-2.7,6.43-6.54,7.22-.93,.19-1.91,.07-2.81,.47h-1.68c-1.33-.23-2.67-.4-3.98-.71-3.48-.83-5.71-2.99-6.36-6.53-.61-3.3-1-6.64-1.06-10-.05-3.16-.13-6.31-.45-9.45-.8-7.99-1.63-15.98-2.03-24-.06-1.19-.44-1.57-1.57-1.59-2.98-.06-5.86-.69-8.57-1.96-.6-.28-.87-.1-1.27,.36-1.79,2.12-3.09,4.58-4.47,6.93-3.06,5.24-4.56,10.96-3.94,17.11,.24,2.42,.74,4.81,.59,7.27-.25,4.11-2.73,7.39-6.64,8.64-2.38,.76-4.8,.68-7.24,.35-3.32-.45-5.5-2.34-6.78-5.37-1.2-2.83-1.55-5.85-1.92-8.86C.49,197.7,.24,195.69,0,193.68v-4.08c.41-.85,.23-1.78,.34-2.68,.98-8.09,3.92-15.43,8.39-22.2,2.06-3.13,4.16-6.22,6.94-8.89-.39-.21-.66-.37-.94-.51-4.74-2.37-6.1-5.64-4.3-10.63,.22-.61-.02-.88-.34-1.24-1.57-1.71-3.01-3.53-4.21-5.52-3.81-6.3-4.61-12.78-.95-19.42,2.67-4.85,6.73-8.38,11.26-11.41,.75-.5,1.07-1.05,1.08-1.94,.03-2.4,.13-4.79,.23-7.19,.37-9.18,1.02-18.34,2.22-27.46,.2-1.49,.27-2.81-1.05-3.85-.36-.28-.57-.77-.81-1.18-3.2-5.36-3.58-11.08-2.09-17,1.2-4.78,3.49-9.06,6.27-13.1,.24-.35,1.01-.84-.17-1.13-6.01-1.49-8.68-7.09-7.03-13.14,1.66-6.07,6.12-9.32,11.76-11.25,2.06-.7,4.2-.96,6.38-.63,2.61,.38,4.66,1.69,6.25,3.78,.1-.12,.14-.14,.14-.17,.02-.36,.01-.72,.05-1.07,.38-3.62,1.28-6.96,4.46-9.28,1.64-1.2,3.44-1.95,5.35-2.51h1.68Zm59.39,176.47c5.36,0,10.04-1.1,14.63-2.7,3.56-1.24,6.99-2.72,9.88-5.24,3.62-3.16,4.4-7.31,1.8-11.37-1.65-2.58-.67-5.62,2.24-6.66,3.07-1.1,5.79-2.86,8.12-5.19,3.86-3.86,4.5-7.46,2.11-12.38-.9-1.85-.75-3.47,.54-5.11,3.11-3.95,3.5-8.53,.71-12.7-4.86-7.24-11.67-11.33-20.49-11.71-4.76-.21-9.27,.87-13.57,2.89-2.45,1.15-5.02,.09-5.81-2.4-1.77-5.61-5.52-9.26-11.04-11.06-5.1-1.67-10.31-1.64-15.51-.56-4.02,.84-7.61,2.54-10.42,5.71-1.33,1.5-3.58,1.52-5.24,.27-.64-.48-1.24-1.02-1.89-1.48-4.03-2.85-8.45-4.49-13.44-4.81-5.14-.34-10.23-.41-15.19,1.15-5.18,1.63-8.76,4.79-9.7,10.43-.24,1.43-1.17,2.41-2.51,2.99-2.06,.89-4.01,1.98-5.89,3.19-4.01,2.55-7.67,5.5-10.35,9.5-3.02,4.52-3.44,9.25-1.15,14.21,1.34,2.9,3.25,5.39,5.41,7.72,1.46,1.56,1.66,3.01,.75,4.93-1.14,2.42-.65,4,1.7,5.28,1.56,.85,3.26,1.29,4.98,1.66,2.96,.63,3.63,1.45,4.24,4.38,1.28,6.22,4.58,10.82,10.83,12.9,2.5,.83,5.09,.97,7.7,.9,1.5-.04,2.7,.51,3.65,1.69,1.1,1.38,2.41,2.56,3.77,3.68,5.15,4.2,10.99,6.65,17.68,6.71,4.49,.03,8.76-1.12,12.84-2.99,4.1-1.88,7.81-4.35,11.3-7.18,2.1-1.71,3.85-1.7,5.89,.04,.77,.65,1.64,1.14,2.55,1.55,2.97,1.33,6.11,1.8,8.87,1.78ZM21.35,103.83c2.27-.63,2.52-.86,3.08-2.93,.37-1.4,.89-2.73,1.63-3.97,2.52-4.25,6.45-6.54,11.03-7.86,5.33-1.54,10.77-1.57,16.27-1.17,5.54,.4,10.51,2.18,15.04,5.31,.75,.52,1.5,1.51,2.22,1.49,.7-.02,1.32-1.15,2.08-1.63,.89-.55,.9-1.19,.68-2.09-.95-3.91-2.02-7.8-2.6-11.79-.34-2.36,.44-3.56,2.71-4.37,.45-.16,.91-.29,1.37-.42,7.72-2.08,14.73-5.69,21.26-10.21,4.25-2.94,5.16-7.79,2.6-12.27-1.09-1.91-2.7-3.35-4.27-4.83-5.4-5.07-11.44-9.19-18.21-12.26-.72-.33-1.12-.33-1.36,.53-.25,.94-.82,1.73-1.45,2.46-4.13,4.85-12.23,5.55-17.65,1.51-.82-.61-1.57-1.32-2.45-2.07-.21,1.7-.76,3.17-1.8,4.33-3.54,3.96-8.1,5.97-13.29,6.6-.88,.11-1.18,.29-1.35,1.18-1.45,7.49-5.25,13.38-11.98,17.2-.57,.32-.79,.74-.85,1.32-.43,3.77-.93,7.53-1.26,11.31-.44,4.93-.8,9.87-1.09,14.81-.19,3.26-.42,6.53-.36,9.82Zm-2.94-79.36c-.01,3.09,1.56,5.26,4.55,5.89,1.99,.42,3.99,.71,6.1,.09,4.1-1.2,7.29,.89,7.84,5,.33,2.45,.67,4.91,.6,7.4-.04,1.42,.19,1.62,1.59,1.26,2.72-.71,5.3-1.76,7.59-3.43,1.58-1.15,2.66-2.55,2.64-4.69-.01-1.76,1.18-3.05,2.79-3.48,1.58-.42,3.02,.14,4.07,1.58,3.02,4.12,8.84,5.08,13.03,2.15,1.95-1.37,2.64-3.37,1.96-5.67-.4-1.33-1.05-2.54-2.03-3.49-2.49-2.44-.67-5.89,2.14-6.39,1.11-.2,2.17-.54,3.15-1.09,.75-.42,1.49-.97,1.58-1.85,.36-3.7-.83-6.78-5.24-6.94-3.19-.11-5.87,1.37-8.42,3.04-2.74,1.79-5.58,.72-6.35-2.43-.55-2.24-1.67-4.22-3.25-5.92-.76-.82-1.69-1.47-2.84-1.31-2.24,.32-4.11,1.44-5.23,3.41-1.16,2.06-1.56,4.33-1.08,6.71,.33,1.63,.13,3.12-1.36,4.16-2.09,1.45-4.69,.68-5.73-1.76-1.04-2.43-2.86-3.65-5.45-3.47-4.54,.31-8.29,2.23-10.98,5.96-1.11,1.55-1.69,3.34-1.69,5.28Zm128.23,126.52c-1.98,1.26-3.78,2.36-5.75,3.12-.83,.32-.93,.59-.48,1.41,2.82,5.1,2.28,10.43-1.46,14.68-2.29,2.6-5.21,4.34-8.33,5.72-.75,.33-.96,.68-.84,1.52,.93,6.93,1.81,13.87,2.66,20.81,.1,.78,.36,.98,1.1,.97,3.2-.04,6.4-.02,9.6-.02q1.92,0,2.04-1.88c.33-4.91,.48-9.82,.47-14.74,0-6.28,.28-12.55,.62-18.81,.23-4.19,.43-8.38,.37-12.79Zm-125.57,6.83c-.54,.15-.8,.53-1.1,.83-5.83,5.88-10.11,12.71-12.78,20.56-1.7,4.98-2.36,10.08-2,15.33,.06,.82,.27,1.15,1.19,1.13,3.36-.06,6.71-.07,10.07,0,.97,.02,1.22-.32,1.22-1.21,0-2.77,.52-5.47,1.21-8.15,1.48-5.72,4.73-10.5,7.98-15.28,.32-.47,.86-.81,.17-1.49-3.27-3.21-5.06-7.2-5.96-11.73Zm26.58,21.23c.17,2.39,.33,4.45,.47,6.51,.51,7.25,1.65,14.45,1.79,21.72,.01,.62,.18,.82,.81,.82,3.72-.03,7.43-.03,11.15,0,.62,0,.84-.18,.82-.81-.05-1.8-.03-3.6-.05-5.39-.06-4.67-.15-9.35-.19-14.02,0-.9-.26-1.35-1.22-1.52-1.05-.2-2.06-.6-3.07-.97-3.79-1.39-7.13-3.53-10.53-6.33Zm52.69-.35c.62,1.92,1.3,3.52,1.47,5.31,.54,5.64,1.31,11.26,2.26,16.85,.12,.7,.28,1.02,1.1,.96,3.39-.24,6.78-.41,10.17-.57,.8-.04,.95-.34,.91-1.11-.12-2.35-.18-4.71-.18-7.07,0-3.52,.1-7.03,.1-10.55,0-2.22-.05-2.22-2.21-2.08-.16,.01-.32,0-.48,.02-4.41,.25-8.76,0-13.14-1.77ZM33.46,42.18c.12-1.63-.34-3.88-.58-6.14-.1-.89-.4-1.85-1.52-1.84-1.8,0-3.63,.49-4.74,1.89-3.11,3.89-5.55,8.19-6.86,13.05-1.27,4.7-1.18,9.31,1.2,13.72,.37,.69,.7,.93,1.47,.5,2.32-1.31,4.41-2.89,6.09-4.97,3.65-4.54,4.9-9.85,4.94-16.2Zm22.97,170.9c-1.84,0-3.67,.01-5.51,0-.55,0-.8,.12-.71,.74,.26,1.82,.42,3.64,.71,5.45,.2,1.27,.94,2.19,2.22,2.56,2.38,.68,4.78,.83,7.2,.2,1.22-.32,1.88-1.08,2.09-2.32,.33-1.94,.24-3.9,.24-5.85,0-.63-.25-.81-.85-.8-1.79,.03-3.59,.01-5.39,.01Zm82.31-8.88c-1.6,0-3.19,0-4.79,0-.44,0-.75,.03-.76,.62-.04,1.92,0,3.82,.35,5.72,.29,1.6,1.27,2.49,2.85,2.82,1.85,.39,3.72,.44,5.59,.21,1.62-.2,2.34-.95,2.38-2.6,.04-2.03-.02-4.06,0-6.09,0-.65-.34-.69-.82-.69-1.6,.01-3.19,0-4.79,0Zm-126.66-3.56c-1.68,0-3.36,.07-5.03-.03-1.05-.06-1.21,.36-1.02,1.23,.19,.9,.31,1.81,.53,2.7,.96,3.77,1.92,4.53,5.81,4.7,.08,0,.16,0,.24,0,3.9,0,5.83-1.96,5.75-5.85-.01-.6-.11-1.19-.12-1.79-.02-.77-.37-1-1.13-.98-1.68,.06-3.36,.02-5.03,.02Zm98.66,13.1c1.65-.06,3.17-.07,4.67-.32,.88-.14,1.32-.66,1.47-1.5,.28-1.66,.32-3.33,.26-5.01-.02-.55-.2-.79-.78-.76-3.59,.21-7.17,.41-10.76,.6-.41,.02-.7,.11-.65,.62,.16,1.55,.28,3.1,.48,4.64,.12,.89,.7,1.41,1.62,1.47,1.27,.09,2.55,.17,3.69,.25ZM87.68,36.5c.22-.28,.04-.45-.04-.61-2.48-5.27-6.51-9.11-11.29-12.26-.32-.21-.58-.13-.89,0-.72,.28-1.55,2.7-1.24,3.65,.58,1.76,1.26,3.42,3.42,3.77,.45,.08,.87,.39,1.31,.59,3.05,1.38,5.92,3.08,8.73,4.87Z"/><path class="cls-1" d="M35.24,67.79c0-1.87,.88-3.28,2.35-4.36,3.14-2.29,8.22-2.35,11.43-.14,3.28,2.26,3.45,6.32,.38,8.84-3.38,2.76-9.66,2.47-12.59-.57-1.08-1.12-1.56-2.29-1.56-3.77Zm8.1-1.81c-1.16,.08-2.34,.24-3.29,1.07-.6,.52-.6,1.07,0,1.62,1.45,1.33,5.11,1.37,6.6,.06,.77-.68,.75-1.2-.09-1.83-.93-.7-2.04-.85-3.21-.92Z"/><path class="cls-1" d="M54.15,58.12c-4.59-.04-9.03-4.72-8.83-9.31,.06-1.37,.81-2.16,2.14-2.26,1.36-.11,2.26,.49,2.5,1.85,.25,1.36,.55,2.67,1.63,3.64,.32,.29,.67,.57,1.03,.81,.58,.38,1.35,.77,1.9,.4,.57-.38-.05-1.08-.18-1.62-.26-1.04-.65-2.05-.93-3.09-.41-1.54,.14-2.78,1.35-3.16,1.38-.43,2.59,.14,3.12,1.66,.61,1.73,1.19,3.49,1.54,5.28,.66,3.3-1.72,5.84-5.27,5.81Z"/><path class="cls-1" d="M62.36,46.85c0-1.56,.63-2.37,1.96-2.52,1.35-.15,2.18,.56,2.44,2.17,.27,1.67,1.12,2.88,2.65,3.59,.31,.14,.72,.4,1.01,.18,.34-.26,.04-.66-.06-.99-.29-.95-.61-1.9-.86-2.86-.43-1.6,.07-2.72,1.36-3.12,1.29-.4,2.31,.21,2.86,1.81,.45,1.32,.88,2.65,1.2,4,.75,3.15-1.28,5.71-4.49,5.73-4.03,.03-8.06-3.95-8.07-7.99Z"/></svg>